<svg width="230" height="175" viewBox="0 0 230 175" fill="none" xmlns="http://www.w3.org/2000/svg">
<line x1="3" y1="-1.31134e-07" x2="3.00001" y2="175" stroke="url(#paint0_linear_2230_413)" stroke-width="6"/>
<line x1="19" y1="32" x2="19" y2="142" stroke="url(#paint0_linear_2230_413)" stroke-width="6"/>
<line x1="131" y1="32" x2="131" y2="142" stroke="url(#paint0_linear_2230_413)" stroke-width="6"/>
<line x1="35" y1="52" x2="35" y2="130" stroke="url(#paint0_linear_2230_413)" stroke-width="6"/>
<line x1="51" y1="52" x2="51" y2="130" stroke="url(#paint0_linear_2230_413)" stroke-width="6"/>
<line x1="163" y1="52" x2="163" y2="130" stroke="url(#paint0_linear_2230_413)" stroke-width="6"/>
<line x1="67" y1="44" x2="67" y2="138" stroke="url(#paint0_linear_2230_413)" stroke-width="6"/>
<line x1="147" y1="44" x2="147" y2="138" stroke="url(#paint0_linear_2230_413)" stroke-width="6"/>
<line x1="115" y1="44" x2="115" y2="138" stroke="url(#paint0_linear_2230_413)" stroke-width="6"/>
<line x1="83" y1="64" x2="83" y2="111" stroke="url(#paint0_linear_2230_413)" stroke-width="6"/>
<line x1="179" y1="64" x2="179" y2="111" stroke="url(#paint0_linear_2230_413)" stroke-width="6"/>
<line x1="195" y1="71" x2="195" y2="104" stroke="url(#paint0_linear_2230_413)" stroke-width="6"/>
<line x1="211" y1="71" x2="211" y2="104" stroke="url(#paint0_linear_2230_413)" stroke-width="6"/>
<line x1="227" y1="75" x2="227" y2="99" stroke="url(#paint0_linear_2230_413)" stroke-width="6"/>
<line x1="99" y1="17" x2="99" y2="157" stroke="url(#paint0_linear_2230_413)" stroke-width="6"/>

<defs>
 <linearGradient 
   id="paint0_linear_2230_413" 
   x1="4.15991"
   y1="12" 
   x2="19.8399" 
   y2="12" 
   gradientUnits="userSpaceOnUse">
   <stop stop-color="#fc4a1a"/>
   <stop offset="1" stop-color="#f7b733"/>
 </linearGradient>
</defs>
</svg>
