<svg width="88" height="28" viewBox="0 0 88 28" fill="none" xmlns="http://www.w3.org/2000/svg">
<path d="M3.552 22C3.328 22 3.168 21.9093 3.072 21.728L1.072 18.352C0.954667 18.16 0.933333 17.9733 1.008 17.792L6.432 5.04L6.288 5.568V4.64L6.448 4.928H1.632C1.36533 4.928 1.232 4.79467 1.232 4.528V1.072C1.232 0.805332 1.36533 0.671999 1.632 0.671999H9.392C9.60533 0.671999 9.76533 0.751999 9.872 0.911999L12.16 4.128C12.288 4.288 12.304 4.47467 12.208 4.688L6.72 17.552L6.848 16.64V18.16L6.592 17.728H11.632C11.8987 17.728 12.032 17.8613 12.032 18.128V21.6C12.032 21.8667 11.8987 22 11.632 22H3.552ZM15.5388 22C15.2721 22 15.1388 21.8667 15.1388 21.6V4.8C15.1388 4.53333 15.2721 4.4 15.5388 4.4H19.7948C20.0614 4.4 20.1948 4.53333 20.1948 4.8V21.6C20.1948 21.8667 20.0614 22 19.7948 22H15.5388ZM15.4588 3.072C15.2454 3.072 15.1388 2.96533 15.1388 2.752V0.719999C15.1388 0.506666 15.2454 0.4 15.4588 0.4H19.9068C20.0988 0.4 20.1948 0.506666 20.1948 0.719999V2.752C20.1948 2.96533 20.0988 3.072 19.9068 3.072H15.4588ZM24.32 22C24.0533 22 23.92 21.8667 23.92 21.6V4.8C23.92 4.53333 24.0533 4.4 24.32 4.4H32.88C33.1253 4.4 33.3387 4.49067 33.52 4.672L36.72 7.872C36.9013 8.04267 36.992 8.256 36.992 8.512V21.6C36.992 21.8667 36.8587 22 36.592 22H32.32C32.0533 22 31.92 21.8667 31.92 21.6V9.152C31.92 8.65067 31.6693 8.4 31.168 8.4H28.992V21.6C28.992 21.8667 28.8587 22 28.592 22H24.32ZM45.2445 27.328C44.9778 27.328 44.8445 27.1947 44.8445 26.928V24.432C44.8445 24.2187 44.9245 24.1013 45.0845 24.08L47.4205 23.488L49.0845 22.608C49.2445 22.5227 49.3245 22.3573 49.3245 22.112V19.488L47.8205 20.88C47.6392 21.0613 47.4258 21.152 47.1805 21.152L44.4605 21.248C44.2152 21.248 44.0018 21.1627 43.8205 20.992L40.8925 18.048C40.7112 17.8773 40.6205 17.664 40.6205 17.408V8.512C40.6205 8.256 40.7112 8.04267 40.8925 7.872L44.0925 4.672C44.2738 4.49067 44.4872 4.4 44.7325 4.4H53.2925C53.5592 4.4 53.6925 4.53333 53.6925 4.8V24.032C53.6925 24.32 53.6018 24.5333 53.4205 24.672L51.2925 26.032L48.6045 27.152C48.4445 27.216 48.3218 27.2587 48.2365 27.28C48.1618 27.312 48.0338 27.328 47.8525 27.328H45.2445ZM46.6045 17.792H47.7245C48.0658 17.792 48.3005 17.7227 48.4285 17.584C48.5565 17.4453 48.6205 17.2 48.6205 16.848V8.128H46.6045C46.2525 8.128 46.0125 8.19733 45.8845 8.336C45.7565 8.47467 45.6925 8.72 45.6925 9.072V16.848C45.6925 17.2 45.7565 17.4453 45.8845 17.584C46.0125 17.7227 46.2525 17.792 46.6045 17.792ZM64.588 22C64.4813 22 64.364 21.984 64.236 21.952C64.1187 21.92 64.0067 21.8933 63.9 21.872L61.052 21.168L57.788 20.08C57.468 19.9733 57.308 19.664 57.308 19.152V8.512C57.308 8.256 57.3987 8.04267 57.58 7.872L60.78 4.672C60.9613 4.49067 61.1747 4.4 61.42 4.4H66.54C66.7853 4.4 66.9987 4.49067 67.18 4.672L70.38 7.872C70.5613 8.04267 70.652 8.256 70.652 8.512V15.072H62.06L61.948 17.2L64.22 17.952L68.3 18.24C68.4813 18.272 68.572 18.3947 68.572 18.608V21.6C68.572 21.8667 68.4387 22 68.172 22H64.588ZM63.948 12.56H64.252C64.7747 12.56 65.1907 12.3627 65.5 11.968C65.82 11.5733 65.98 11.04 65.98 10.368V10.048C65.98 9.38667 65.82 8.85867 65.5 8.464C65.1907 8.06933 64.7747 7.872 64.252 7.872H63.932C63.42 7.872 63.0093 8.06933 62.7 8.464C62.4013 8.85867 62.252 9.38667 62.252 10.048V10.368C62.252 11.04 62.4013 11.5733 62.7 11.968C63.0093 12.3627 63.4253 12.56 63.948 12.56ZM74.3825 22C74.1158 22 73.9825 21.8667 73.9825 21.6V4.8C73.9825 4.53333 74.1158 4.4 74.3825 4.4H82.9425C83.1878 4.4 83.4012 4.49067 83.5825 4.672L86.7825 7.872C86.9638 8.04267 87.0545 8.256 87.0545 8.512V21.6C87.0545 21.8667 86.9212 22 86.6545 22H82.3825C82.1158 22 81.9825 21.8667 81.9825 21.6V9.152C81.9825 8.65067 81.7318 8.4 81.2305 8.4H79.0545V21.6C79.0545 21.8667 78.9212 22 78.6545 22H74.3825Z" fill="white"/>
</svg>
